#!OML:ASF E:\Mandelcareful walks\Project 1\Capture day 1\Session 1\Subject1.ASF
:FULLY-SPECIFIED
:DEGREES
546
root -8.46556 14.0762 -0.592047 -279.889 77.0493 -298.608
lowerback 28.8145 4.48079 -1.50341
upperback 5.74352 5.39131 -3.68525
thorax -9.13523 2.74014 -5.2421
lowerneck -22.4413 -6.37229 -9.07338
upperneck 7.33535 -6.84758 7.44737
head 6.38558 -2.9377 3.04898
rclavicle -6.36111e-015 5.88403e-014
rhumerus -33.6045 -0.0338632 -67.5057
rradius 46.8546
rwrist -8.59064
rhand -20.601 -23.921
rfingers 7.12502
rthumb 5.7596 -53.8227
lclavicle -6.36111e-015 5.88403e-014
lhumerus 46.8974 9.71761 37.4119
lradius 132.443
lwrist -22.0356
lhand -53.8005 -64.5581
lfingers 7.12502
lthumb -26.2323 -36.3512
rfemur -66.7706 -26.1308 7.57932
rtibia 77.8418
rfoot -24.5081 -18.0194
rtoes -7.25812
lfemur -56.004 9.20267 -16.1263
ltibia 66.3054
lfoot -23.2426 -1.91391
ltoes -23.7672
547
root -8.45859 14.0703 -0.608399 -277.596 77.3806 -296.179
lowerback 29.1133 4.32266 -1.23577
upperback 5.75587 5.26445 -3.69696
thorax -9.25272 2.67403 -5.3924
lowerneck -22.3954 -6.38095 -9.09412
upperneck 7.31292 -6.86809 7.53036
head 6.3774 -2.94203 3.07763
rclavicle -5.08889e-014 5.56597e-014
rhumerus -33.6213 -0.0948517 -67.7035
rradius 47.4088
rwrist -8.705
rhand -20.5115 -23.3524
rfingers 7.12502
rthumb 5.846 -53.2517
lclavicle -5.08889e-014 5.56597e-014
lhumerus 47.0228 9.6919 37.3499
lradius 132.287
lwrist -21.7065
lhand -53.5264 -65.5396
lfingers 7.12502
lthumb -25.9699 -37.2939
rfemur -66.4161 -26.6231 7.56873
rtibia 77.9284
rfoot -24.6057 -17.9675
rtoes -7.8429
lfemur -56.1288 8.92162 -16.0699
ltibia 66.3635
lfoot -23.0693 -2.26185
ltoes -23.7037
548
root -8.44493 14.0714 -0.620087 -274.569 77.746 -292.806
lowerback 29.5745 4.07618 -0.901214
upperback 5.81978 5.05512 -3.6564
thorax -9.39784 2.57006 -5.5037
lowerneck -22.2011 -6.37017 -9.12005
upperneck 7.15375 -6.87522 7.67198
head 6.30387 -2.93844 3.13091
rclavicle -3.18055e-015 3.49861e-014
rhumerus -33.6063 -0.0808882 -67.9823
rradius 47.628
rwrist -8.7569
rhand -21.1514 -21.6546
rfingers 7.12502
rthumb 5.22816 -51.5701
lclavicle -3.18055e-015 3.49861e-014
lhumerus 47.0141 9.61019 37.228
lradius 132.142
lwrist -21.3931
lhand -53.5283 -65.9871
lfingers 7.12502
lthumb -25.9717 -37.7417
rfemur -65.6628 -27.2257 7.45702
rtibia 77.9891
rfoot -24.8569 -18.0784
rtoes -9.82862
lfemur -55.979 8.44686 -15.9407
ltibia 66.3572
lfoot -22.8845 -2.54
ltoes -24.0127
549
root -8.4408 14.0534 -0.626914 -275.05 77.8959 -293.604
lowerback 29.4114 4.29339 -1.0838
upperback 5.67709 5.26363 -3.65628
thorax -9.48057 2.66185 -5.46877
lowerneck -22.0956 -6.42807 -9.22823
upperneck 7.19164 -6.95826 7.82942
head 6.31772 -2.97168 3.19005
rclavicle 4.6118e-014 -3.65764e-014
rhumerus -33.9356 -0.111986 -68.2632
rradius 48.0888
rwrist -8.90614
rhand -21.5373 -20.5106
rfingers 7.12502
rthumb 4.85552 -50.435
lclavicle 4.6118e-014 -3.65764e-014
lhumerus 46.9733 9.41695 37.1763
lradius 131.982
lwrist -21.444
lhand -54.1572 -66.4221
lfingers 7.12502
lthumb -26.5738 -38.2665
rfemur -66.154 -27.0314 7.7143
rtibia 78.1228
rfoot -24.8175 -18.5387
rtoes -8.81131
lfemur -56.4425 8.82558 -15.9066
ltibia 66.4839
lfoot -22.771 -2.67314
ltoes -24.4767
550
root -8.42991 14.0451 -0.638278 -271.935 78.0518 -290.514
lowerback 29.4978 4.12262 -0.953001
upperback 5.61853 5.08148 -3.6595
thorax -9.59299 2.56972 -5.49528
lowerneck -21.9908 -6.53727 -9.33909
upperneck 7.25187 -7.11544 8.01286
head 6.34681 -3.03884 3.24827
rclavicle 9.54166e-015 -4.13472e-014
rhumerus -34.3837 -0.152984 -68.6093
rradius 48.5971
rwrist -8.90969
rhand -21.4422 -20.2774
rfingers 7.12502
rthumb 4.9474 -50.1997
lclavicle 9.54166e-015 -4.13472e-014
lhumerus 46.9672 9.29069 37.1803
lradius 131.984
lwrist -21.6412
lhand -54.7577 -65.963
lfingers 7.12502
lthumb -27.1484 -37.8957
rfemur -66.012 -27.707 7.64758
rtibia 78.2522
rfoot -24.721 -18.9299
rtoes -7.17613
lfemur -56.6647 8.35965 -15.945
ltibia 66.5816
lfoot -22.7407 -2.87358
ltoes -24.6284
551
root -8.41408 14.0484 -0.658356 -267.576 78.1667 -285.831
lowerback 29.873 3.75882 -0.5705
upperback 5.70119 4.74285 -3.65993
thorax -9.6787 2.40717 -5.62292
lowerneck -21.8376 -6.63984 -9.26378
upperneck 7.19976 -7.29271 8.0467
head 6.32059 -3.12368 3.22666
rclavicle -2.8625e-014 -1.43125e-014
rhumerus -34.6415 -0.179653 -68.9833
rradius 48.8811
rwrist -8.90674
rhand -20.8677 -20.792
rfingers 7.12502
rthumb 5.5021 -50.7005
lclavicle -2.8625e-014 -1.43125e-014
lhumerus 46.9771 9.25535 37.1871
lradius 132.204
lwrist -21.5072
lhand -54.2816 -64.0188
lfingers 7.12502
lthumb -26.6929 -35.8812
rfemur -65.265 -28.7307 7.35989
rtibia 78.3301
rfoot -24.7657 -18.8954
rtoes -8.90398
lfemur -56.5078 7.49368 -15.9619
ltibia 66.6845
lfoot -22.807 -3.15311
ltoes -24.0942
552
root -8.40464 14.0468 -0.668912 -266.581 78.208 -284.78
lowerback 29.9402 3.80562 -0.682776
upperback 5.80068 4.78518 -3.60167
thorax -9.60812 2.43763 -5.50623
lowerneck -22.0192 -6.75894 -9.30322
upperneck 7.25192 -7.43707 8.11919
head 6.38275 -3.18331 3.23438
rclavicle 3.18055e-014 5.725e-014
rhumerus -34.7314 -0.130278 -69.236
rradius 49.1074
rwrist -9.13086
rhand -20.0393 -21.5194
rfingers 7.12502
rthumb 6.30186 -51.4057
lclavicle 3.18055e-014 5.725e-014
lhumerus 46.9083 9.2459 37.2712
lradius 132.318
lwrist -21.4084
lhand -53.4019 -62.8974
lfingers 7.12502
lthumb -25.8507 -34.6343
rfemur -65.0955 -28.9634 7.29139
rtibia 78.4046
rfoot -25.0481 -18.5805
rtoes -11.2885
lfemur -56.5275 7.43763 -16.0223
ltibia 66.8118
lfoot -22.8913 -3.41096
ltoes -23.5934
553
root -8.40057 14.0381 -0.682143 -266.586 78.2172 -284.967
lowerback 29.8252 3.92757 -0.907084
upperback 5.82164 4.87961 -3.56649
thorax -9.54151 2.48979 -5.35928
lowerneck -22.2097 -6.8173 -9.5467
upperneck 7.2582 -7.46982 8.42851
head 6.44093 -3.17418 3.36709
rclavicle 6.20208e-014 -2.06736e-014
rhumerus -34.7622 0.148838 -69.5518
rradius 49.1086
rwrist -9.40128
rhand -19.5831 -21.5871
rfingers 7.12502
rthumb 6.74232 -51.4598
lclavicle 6.20208e-014 -2.06736e-014
lhumerus 46.7214 9.24662 37.2483
lradius 132.264
lwrist -21.4872
lhand -52.927 -62.5995
lfingers 7.12502
lthumb -25.3958 -34.2709
rfemur -65.3378 -28.9033 7.2876
rtibia 78.4614
rfoot -25.1877 -18.4614
rtoes -10.043
lfemur -56.8439 7.65155 -16.1818
ltibia 66.9623
lfoot -22.9097 -3.51988
ltoes -23.5834
554
root -8.39572 14.0303 -0.699373 -267.604 78.2465 -286.187
lowerback 29.6967 4.09893 -1.06446
upperback 5.79782 5.04638 -3.58725
thorax -9.50402 2.57023 -5.3426
lowerneck -22.093 -6.86649 -9.69836
upperneck 7.12212 -7.53024 8.67852
head 6.40223 -3.1896 3.4676
rclavicle 1.74931e-014 2.70347e-014
rhumerus -34.8218 0.435034 -69.9354
rradius 48.9868
rwrist -9.45531
rhand -18.9757 -22.1281
rfingers 7.12502
rthumb 7.32864 -51.9812
lclavicle 1.74931e-014 2.70347e-014
lhumerus 46.6578 9.14406 37.1513
lradius 132.181
lwrist -21.4764
lhand -54.269 -63.8163
lfingers 7.12502
lthumb -26.6808 -35.6769
rfemur -65.6491 -28.6076 7.30308
rtibia 78.503
rfoot -25.0376 -18.6722
rtoes -7.96862
lfemur -57.1361 8.01218 -16.3062
ltibia 67.1382
lfoot -22.9587 -3.59881
ltoes -23.4134
555
root -8.39037 14.032 -0.722341 -268.243 78.2742 -286.865
lowerback 29.7627 4.21871 -1.00619
upperback 5.82584 5.21345 -3.62143
thorax -9.48277 2.64805 -5.47936
lowerneck -21.8665 -7.03938 -9.85727
upperneck 6.95589 -7.75156 8.82917
head 6.34718 -3.29526 3.51657
rclavicle -7.79236e-014 5.56597e-014
rhumerus -34.9721 0.346419 -70.1608
rradius 49.1039
rwrist -9.05558
rhand -17.5934 -23.5336
rfingers 7.12502
rthumb 8.66274 -53.3359
lclavicle -7.79236e-014 5.56597e-014
lhumerus 46.8073 8.99149 37.2636
lradius 132.114
lwrist -21.575
lhand -54.4407 -64.2903
lfingers 7.12502
lthumb -26.8451 -36.176
rfemur -65.6808 -28.4674 7.23166
rtibia 78.4802
rfoot -24.8395 -18.7612
rtoes -7.2187
lfemur -57.2015 8.17436 -16.3964
ltibia 67.2333
lfoot -23.0036 -3.67053
ltoes -23.2552
556
root -8.39341 14.026 -0.734171 -270.772 78.2209 -289.726
lowerback 29.5415 4.5764 -1.38063
upperback 5.80238 5.55461 -3.61346
thorax -9.40964 2.81488 -5.35884
lowerneck -21.6801 -7.18958 -10.0642
upperneck 6.80743 -7.9169 8.91373
head 6.29777 -3.37989 3.5583
rclavicle -4.77083e-015 -7.95139e-015
rhumerus -35.0431 0.4169 -70.4326
rradius 48.752
rwrist -8.32632
rhand -17.3354 -23.0139
rfingers 7.12502
rthumb 8.91168 -52.8057
lclavicle -4.77083e-015 -7.95139e-015
lhumerus 46.7759 9.02087 37.4432
lradius 132.097
lwrist -21.7514
lhand -53.1748 -63.5426
lfingers 7.12502
lthumb -25.6331 -35.248
rfemur -66.2513 -27.8462 7.33414
rtibia 78.4549
rfoot -24.8242 -18.6797
rtoes -8.46137
lfemur -57.5342 8.83796 -16.5362
ltibia 67.3421
lfoot -22.9911 -3.78761
ltoes -23.3831
557
root -8.38562 14.0347 -0.745189 -268.139 78.2378 -286.892
lowerback 29.7327 4.3344 -1.32233
upperback 5.96767 5.29194 -3.49988
thorax -9.33948 2.70237 -5.17482
lowerneck -21.6754 -7.20483 -10.206
upperneck 6.73493 -7.88654 8.87231
head 6.2737 -3.37279 3.57148
rclavicle -7.31528e-014 5.24792e-014
rhumerus -34.918 1.11073 -70.9308
rradius 47.6387
rwrist -7.27085
rhand -18.9244 -20.3638
rfingers 7.12502
rthumb 7.37809 -50.2152
lclavicle -7.31528e-014 5.24792e-014
lhumerus 46.4468 9.21685 37.4426
lradius 132.202
lwrist -21.5044
lhand -53.983 -64.5017
lfingers 7.12502
lthumb -26.407 -36.3209
rfemur -65.6969 -28.3495 7.05027
rtibia 78.3719
rfoot -25.1844 -18.3796
rtoes -11.3668
lfemur -57.4024 8.38122 -16.6334
ltibia 67.3015
lfoot -22.9618 -3.94829
ltoes -23.3093
558
root -8.3818 14.0436 -0.749511 -268.244 78.3184 -287.057
lowerback 30.1732 4.31344 -1.27409
upperback 5.74257 5.23397 -3.6007
thorax -9.80248 2.65212 -5.35756
lowerneck -21.8321 -7.16518 -10.0135
upperneck 7.11564 -7.88359 8.75469
head 6.40757 -3.37222 3.49835
rclavicle -4.92986e-014 -1.00187e-013
rhumerus -35.2073 1.14868 -71.4049
rradius 48.1496
rwrist -8.2222
rhand -16.3506 -22.6255
rfingers 7.12502
rthumb 9.86188 -52.3745
lclavicle -4.92986e-014 -1.00187e-013
lhumerus 46.0549 9.05748 37.0742
lradius 132.33
lwrist -21.121
lhand -53.0803 -63.3158
lfingers 7.12502
lthumb -25.5427 -35.0082
rfemur -65.6872 -28.2679 7.12658
rtibia 78.2841
rfoot -25.1808 -18.4164
rtoes -11.2859
lfemur -57.4306 8.53051 -16.6229
ltibia 67.3319
lfoot -23.0075 -4.17265
ltoes -22.7143
559
root -8.37011 14.0502 -0.761736 -265.805 78.3509 -284.546
lowerback 30.4025 4.06847 -0.96891
upperback 5.7546 5.01211 -3.64658
thorax -9.88701 2.54098 -5.52457
lowerneck -21.9293 -7.18544 -9.84645
upperneck 7.27313 -7.93815 8.60022
head 6.46432 -3.40422 3.41137
rclavicle -2.38542e-014 2.38542e-014
rhumerus -35.2559 0.957464 -71.6733
rradius 48.2031
rwrist -8.18221
rhand -14.7128 -23.542
rfingers 7.12502
rthumb 11.4417 -53.2098
lclavicle -2.38542e-014 2.38542e-014
lhumerus 45.9622 8.997 37.0604
lradius 132.333
lwrist -21.3241
lhand -54.532 -64.0948
lfingers 7.12502
lthumb -26.9324 -35.994
rfemur -65.3522 -28.7974 6.97873
rtibia 78.209
rfoot -25.1101 -18.3881
rtoes -9.92353
lfemur -57.3854 8.10289 -16.6713
ltibia 67.2822
lfoot -23.0278 -4.33499
ltoes -22.1872
560
root -8.37194 14.0341 -0.773941 -268.226 78.3648 -287.373
lowerback 30.1092 4.31725 -1.23038
upperback 5.69699 5.24433 -3.62979
thorax -9.81621 2.65228 -5.41669
lowerneck -21.964 -7.22323 -9.86282
upperneck 7.28432 -7.96005 8.45179
head 6.46796 -3.42713 3.36139
rclavicle 4.13472e-014 -1.90833e-014
rhumerus -35.109 1.07376 -71.8706
rradius 47.95
rwrist -7.9823
rhand -14.0238 -23.5598
rfingers 7.12502
rthumb 12.1062 -53.1896
lclavicle 4.13472e-014 -1.90833e-014
lhumerus 45.6463 9.03341 37.2476
lradius 132.545
lwrist -21.4958
lhand -54.7833 -63.7945
lfingers 7.12502
lthumb -27.1728 -35.731
rfemur -66.1106 -28.3533 7.22327
rtibia 78.2214
rfoot -24.8258 -18.4064
rtoes -11.4635
lfemur -57.8307 8.76658 -16.7975
ltibia 67.3483
lfoot -23.0105 -4.33437
ltoes -22.402
